<svg width="141" height="21" viewBox="0 0 141 21" fill="none" xmlns="http://www.w3.org/2000/svg">
<path d="M18.2581 7.75994V11.7999H14.4181V7.75994C14.4181 5.69994 12.7481 4.02994 10.6881 4.02994H0.288086V0.189941H10.6881C14.8581 0.189941 18.2581 3.58994 18.2581 7.75994ZM6.77809 11.7799H12.5581V7.93994H2.71809C1.38809 7.93994 0.288086 9.02994 0.288086 10.3699V20.9799H4.12809V14.4699L12.7181 20.9799L18.2781 20.9999L6.77809 11.7799ZM4.13809 11.7899L4.15809 11.7799H4.13809V11.7899ZM27.2481 20.9099V20.9799H28.3581C27.9781 20.9799 27.6181 20.9499 27.2481 20.9099ZM46.7381 4.42994H42.3081V0.189941H38.4681V15.5399H42.3081V8.26994H46.7381C49.1781 8.26994 51.1681 10.2599 51.1681 12.6999C51.1681 15.1399 49.1781 17.1299 46.7381 17.1299H28.3581C25.9081 17.1299 23.9281 15.1399 23.9281 12.6999C23.9281 10.2599 25.9181 8.26994 28.3581 8.26994C28.4081 8.26994 28.4681 8.26994 28.5181 8.26994C28.5381 8.26994 28.5681 8.26994 28.5881 8.26994C28.6381 8.26994 28.6781 8.26994 28.7281 8.26994C28.8381 8.26994 28.9581 8.28994 29.0681 8.30994C30.7381 8.58994 32.1381 9.82994 32.6081 11.4699H27.1481V15.3099H36.2081C36.2081 15.3099 36.2181 15.2699 36.2281 15.2499L36.3181 14.9399C36.4581 14.4499 36.5481 13.9599 36.5981 13.4799C36.5981 13.4099 36.6081 13.3399 36.6181 13.2699C36.6181 13.1599 36.6281 13.0599 36.6381 12.9499C36.6381 12.9199 36.6381 12.8899 36.6381 12.8599C36.6381 12.7999 36.6381 12.7499 36.6381 12.6899C36.6381 8.12994 32.9281 4.40994 28.3681 4.40994C23.8081 4.40994 20.0881 8.11994 20.0881 12.6899C20.0881 16.8799 23.2181 20.3499 27.2581 20.8899C27.6181 20.9399 27.9881 20.9599 28.3681 20.9599H46.7481C51.3081 20.9599 55.0181 17.2499 55.0181 12.6799C55.0181 8.10994 51.3081 4.40994 46.7481 4.40994L46.7381 4.42994ZM73.3881 12.6999C73.3881 17.2599 69.6781 20.9799 65.1081 20.9799C60.5381 20.9799 56.8281 17.2699 56.8281 12.6999C56.8281 8.12994 60.5381 4.41994 65.1081 4.41994C69.6781 4.41994 73.3881 8.12994 73.3881 12.6999ZM69.5481 12.6999C69.5481 10.2599 67.5581 8.26994 65.1181 8.26994C62.6781 8.26994 60.6881 10.2599 60.6881 12.6999C60.6881 15.1399 62.6781 17.1299 65.1181 17.1299C67.5581 17.1299 69.5481 15.1399 69.5481 12.6999ZM91.7681 12.6999C91.7681 17.2599 88.0581 20.9799 83.4881 20.9799C78.9181 20.9799 75.2081 17.2699 75.2081 12.6999C75.2081 8.12994 78.9181 4.41994 83.4881 4.41994C88.0581 4.41994 91.7681 8.12994 91.7681 12.6999ZM87.9281 12.6999C87.9281 10.2599 85.9381 8.26994 83.4981 8.26994C81.0581 8.26994 79.0681 10.2599 79.0681 12.6999C79.0681 15.1399 81.0581 17.1299 83.4981 17.1299C85.9381 17.1299 87.9281 15.1399 87.9281 12.6999ZM101.668 4.41994V8.25994H97.4281V20.9699H93.5881V0.189941H97.4281V4.42994H101.668V4.41994Z" fill="white"/>
<path d="M133.778 3.52995V3.53995C135.528 3.44995 137.018 4.79995 137.108 6.54995H137.118C137.028 4.79995 138.378 3.30995 140.128 3.21995C138.378 3.29995 136.888 1.94995 136.798 0.199951H136.788C136.878 1.94995 135.528 3.43995 133.778 3.52995Z" fill="white"/>
<path d="M132.098 2.82997C132.508 2.82997 132.838 3.15997 132.838 3.56997C132.838 3.15997 133.168 2.82997 133.578 2.82997C133.168 2.82997 132.838 2.49997 132.838 2.08997C132.838 2.49997 132.508 2.82997 132.098 2.82997Z" fill="white"/>
<path d="M131.468 20.9999H127.308L120.248 5.36994L113.188 20.9999H108.968L118.368 0.189941H122.128L131.468 20.9999Z" fill="white"/>
<path d="M133.108 3.81995V20.9999H136.948C136.948 20.9999 136.948 10.7299 136.948 9.11995C136.948 7.50995 136.848 3.82995 133.108 3.82995V3.81995Z" fill="white"/>
<path d="M134.338 2.64994C135.017 2.64994 135.568 2.09925 135.568 1.41994C135.568 0.740631 135.017 0.189941 134.338 0.189941C133.659 0.189941 133.108 0.740631 133.108 1.41994C133.108 2.09925 133.659 2.64994 134.338 2.64994Z" fill="white"/>
</svg>
